<?xml version="1.0" encoding="UTF-8" standalone="no"?>
<!-- Created with Inkscape (http://www.inkscape.org/) -->

<svg
   width="121.0257mm"
   height="135.43513mm"
   viewBox="0 0 121.0257 135.43513"
   version="1.1"
   id="svg1"
   xml:space="preserve"
   sodipodi:docname="Logout.svg"
   inkscape:version="1.3.2 (091e20e, 2023-11-25, custom)"
   xmlns:inkscape="http://www.inkscape.org/namespaces/inkscape"
   xmlns:sodipodi="http://sodipodi.sourceforge.net/DTD/sodipodi-0.dtd"
   xmlns="http://www.w3.org/2000/svg"
   xmlns:svg="http://www.w3.org/2000/svg"><sodipodi:namedview
     id="namedview1"
     pagecolor="#ffffff"
     bordercolor="#000000"
     borderopacity="0.25"
     inkscape:showpageshadow="2"
     inkscape:pageopacity="0.0"
     inkscape:pagecheckerboard="0"
     inkscape:deskcolor="#d1d1d1"
     inkscape:document-units="mm"
     inkscape:zoom="0.69219276"
     inkscape:cx="193.58769"
     inkscape:cy="307.71775"
     inkscape:window-width="1920"
     inkscape:window-height="991"
     inkscape:window-x="-9"
     inkscape:window-y="1071"
     inkscape:window-maximized="1"
     inkscape:current-layer="layer1" /><defs
     id="defs1" /><g
     inkscape:label="Capa 1"
     inkscape:groupmode="layer"
     id="layer1"
     transform="translate(-53.831175,-67.006053)"><path
       style="fill:#000000"
       d="m 95.848953,202.19534 c -0.61073,-0.12067 -1.80136,-0.49958 -2.64584,-0.84202 -1.90411,-0.77212 -31.982816,-18.12363 -33.852686,-19.52861 -1.72975,-1.29969 -3.03313,-2.89103 -4.00799,-4.89352 -1.60671,-3.30036 -1.51015,-0.0443 -1.51015,-50.92306 V 79.309173 l 0.63509,-1.93875 c 0.81103,-2.47583 2.16594,-4.55793 4.16193,-6.39562 1.98807,-1.83041 3.73352,-2.77923 6.33809,-3.44537 1.98762,-0.50834 3.03979,-0.52338 36.622173,-0.52338 33.58239,0 34.63456,0.015 36.62218,0.52338 2.65302,0.67853 4.37382,1.6265 6.42644,3.54027 1.89344,1.76535 3.19785,3.76423 4.08187,6.2551 0.59211,1.66833 0.61321,2.04125 0.70522,12.46333 0.10151,11.496857 0.0335,12.291417 -1.17523,13.727887 -2.32068,2.75798 -6.55658,2.13957 -8.06315,-1.17715 -0.44436,-0.97824 -0.48621,-1.94995 -0.49152,-11.412555 -0.006,-10.312852 -0.008,-10.346712 -0.62167,-11.509382 -0.38723,-0.7332 -1.0526,-1.43662 -1.79235,-1.89485 l -1.1765,-0.72875 -29.51705,0.0673 -29.517043,0.0673 14.952276,8.59896 c 13.579017,7.8092 15.127057,8.76905 16.855347,10.45103 1.23253,1.1995 2.19585,2.43411 2.73398,3.50391 1.70437,3.388297 1.61887,1.369407 1.61887,38.223557 v 33.54649 l 10.91406,-0.001 c 6.69119,-9e-4 11.29478,-0.10721 11.89803,-0.27475 1.31616,-0.36553 2.55618,-1.45064 3.14891,-2.75553 0.44037,-0.96947 0.48679,-1.92139 0.49733,-10.19741 0.0105,-8.27602 0.057,-9.22794 0.49733,-10.1974 0.5413,-1.19169 1.84735,-2.41693 2.84257,-2.66672 1.3427,-0.33699 3.45982,0.0407 4.4465,0.7933 1.90149,1.45034 1.87089,1.24638 1.87089,12.4677 0,9.0082 -0.0506,10.21932 -0.48649,11.64166 -1.46147,4.76902 -4.85731,8.35166 -9.56768,10.094 -1.19512,0.44207 -2.5114,0.50212 -13.62604,0.62163 l -12.30312,0.13229 -0.16215,5.02708 c -0.0892,2.7649 -0.3091,5.50334 -0.48872,6.08542 -2.13304,6.91246 -9.8393,11.56155 -16.863707,10.17367 z m 58.494277,-60.28922 c -1.63329,-0.74171 -2.56077,-2.1197 -2.69732,-4.00749 -0.14781,-2.04342 0.44269,-3.03534 3.76772,-6.32902 1.3927,-1.37958 2.53219,-2.59997 2.53219,-2.71198 0,-0.11202 -8.29415,-0.20367 -18.43144,-0.20367 h -18.43144 l -1.08443,-0.63551 c -1.38214,-0.80999 -2.26936,-2.35322 -2.26936,-3.94735 0,-2.12668 0.81986,-3.47379 2.70144,-4.43872 0.93723,-0.48064 1.81657,-0.50342 19.4328,-0.50342 h 18.45115 l -3.07969,-3.1181 c -1.69383,-1.71495 -3.20555,-3.44911 -3.35936,-3.85368 -1.61797,-4.25557 3.01917,-8.2177 6.92103,-5.91356 0.62352,0.3682 4.3556,3.92405 8.29351,7.90188 5.93364,5.99378 7.21373,7.41893 7.47448,8.32145 0.38462,1.33126 0.38647,1.54541 0.0249,2.87972 -0.23858,0.88042 -1.53935,2.31974 -7.73758,8.56175 -4.83868,4.87285 -7.82183,7.67675 -8.50913,7.99784 -1.34338,0.62758 -2.61728,0.62753 -3.99946,-1.4e-4 z"
       id="path1"
       inkscape:export-filename="Logout.png"
       inkscape:export-xdpi="96"
       inkscape:export-ydpi="96" /></g></svg>
